# xmcd
#
# Track frame offsets:
#	150
#	18212
#	35107
#	55127
#	71703
#	89834
#	100601
#	120465
#	138710
#	152241
#	170440
#	191841
#	209122
#	220710
#	236029
#	255703
#	267778
#	293668
#	305282
#	318857
#
# Disc length: 4493 seconds
#
# Revision: 0
# Processed by: cddbd v1.5.2PL0 Copyright (c) Steve Scherf et al.
# Submitted via: audiograbber 1.83.01
#
DISCID=2c118b14
DTITLE=Various Artist - Merry Xmas! CD1
DYEAR=1900
DGENRE=
TTITLE0=Mariah Carey - All I Want For Christmas
TTITLE1=Band Aid - Do They Know It's Christmas?
TTITLE2=Wham! - Last Christmas
TTITLE3=Shakin' Stevens - Merry Christmas Everyone
TTITLE4=Girls Aloud - I Wish It Could Be Christmas Everyday
TTITLE5=Lady GaGa ft Space Cowboy - Christmas Tree
TTITLE6=Abba - Happy New Year
TTITLE7=Boney M - Mary's Boy Child and Oh My Lord
TTITLE8=Pussycat Dolls - Santa Baby
TTITLE9=Christina Aguilera - The Christmas Song
TTITLE10=Ronan Keating ft Marie Brennan - Fairytale of New York
TTITLE11=Charlotte Church - Dream A Dream
TTITLE12=Gabriella Cilmi - Warm This Winter
TTITLE13=The Feeling - Feels Like Christmas
TTITLE14=Elton John - Step Into Christmas
TTITLE15=The Jackson 5 - Frosty The Snowman
TTITLE16=Elvis Presley - Merry Christmas Baby
TTITLE17=Frank Sinatra - Santa Claus Is Comin' To Town
TTITLE18=Bing Crosby - White Christmas
TTITLE19=Chris Rea - Driving Home For Christmas
EXTD=(p)2010 Sony Music - Universal Music TV
EXTT0=
EXTT1=
EXTT2=
EXTT3=
EXTT4=
EXTT5=
EXTT6=
EXTT7=
EXTT8=
EXTT9=
EXTT10=
EXTT11=
EXTT12=
EXTT13=
EXTT14=
EXTT15=
EXTT16=
EXTT17=
EXTT18=
EXTT19=
PLAYORDER=
